stateDiagram-v2
    INACTIVE --> IDLE: 5.3.2.3
    IDLE --> CONNECTED: 5.3.3.1
    INACTIVE --> CONNECTED: 5.3.3.4
    UNKNOWN --> IDLE: 5.3.5.5.2
    UNKNOWN --> IDLE: 5.3.5.8.2
    UNKNOWN --> IDLE: 5.3.7.3
    UNKNOWN --> IDLE: 5.3.7.5
    UNKNOWN --> IDLE: 5.3.7.6
    UNKNOWN --> IDLE: 5.3.7.7
    UNKNOWN --> IDLE: 5.3.8.3
    IDLE --> INACTIVE: 5.3.8.3
    CONNECTED --> IDLE: 5.3.8.5
    UNKNOWN --> IDLE: 5.3.8.6
    UNKNOWN --> IDLE: 5.3.9.2
    UNKNOWN --> IDLE: 5.3.10.3
    INACTIVE --> CONNECTED: 5.3.13.4
    UNKNOWN --> IDLE: 5.3.13.5
    INACTIVE --> IDLE: 5.3.13.6
    INACTIVE --> IDLE: 5.3.13.8
    UNKNOWN --> IDLE: 5.3.13.11
    UNKNOWN --> IDLE: 5.3.13.12
    UNKNOWN --> IDLE: 5.4.3.5
    INACTIVE --> CONNECTED: 5.8.9.8.1
    CONNECTED --> IDLE: 6.3.4
    CONNECTED --> IDLE: 7.1.1
    CONNECTED --> IDLE: # 12 Processing dela
